# xmcd
#
# Track frame offsets:
#	150
#	20000
#	37659
#	58325
#	73436
#	88606
#	104301
#	119327
#	134414
#	150879
#
# Disc length: 2216 seconds
#
# Revision: 0
# Processed by: cddbd v1.5.2PL0 Copyright (c) Steve Scherf et al.
# Submitted via: EasyCDDAExtractor 16.0.6.1
#
DISCID=8408a60a
DTITLE=Συλλογικός δίσκος - Ιστορικές ηχογραφήσεις μπουζουκιού
DYEAR=2008
DGENRE=Οργανική μπουζούκι
TTITLE0=Καραπιπέρης Μανώλης - Αϊντίνικο ζεϊμπέκικο [Μ. Καραπιπέρης]
TTITLE1=Χαλκιάς Ιωάννης ή Jack Gregory - Ραστ του τεκέ [Ι. Χαλκιάς]
TTITLE2=Χαλκιάς Ιωάννης ή Jack Gregory - Μουρμούρικο ζεϊμπέκικο [Ι. Χαλκιάς]
TTITLE3=Άνευ ερμηνευτού - Αράπ [ορχηστρικό, Μάρκος Βαμβακάρης]
TTITLE4=Άνευ ερμηνευτού - Τα ωραία του Τσιτσάνη [ορχηστρικό, Β. Τσιτσάνης]
TTITLE5=Άνευ ερμηνευτού - Νέο σόλο Παπαϊωάννου [ορχηστρικό, Γ. Παπαϊωάννου]
TTITLE6=Άνευ ερμηνευτού - Γκιουζέλ ταξίμ [Ε. Μωραΐτης, μπ. Μ. Χιώτης]
TTITLE7=Άνευ ερμηνευτού - Γαλατιανό χασαποσέρβικο [Σ. Περιστέρης, μπ. Γιάννης 
TTITLE7=Σταματίου]
TTITLE8=Άνευ ερμηνευτού - Χασαποσέρβικο [ορχηστρικό, Απ. Χατζηχρήστος]
TTITLE9=Άνευ ερμηνευτού - Μινόρε [ορχηστρικό, Γιώργος Τσιμπίδης]
EXTD=
EXTT0=
EXTT1=
EXTT2=
EXTT3=
EXTT4=
EXTT5=
EXTT6=
EXTT7=
EXTT8=
EXTT9=
PLAYORDER=
